<svg width="1400" height="540" viewBox="0 0 1400 540" fill="none" xmlns="http://www.w3.org/2000/svg">
  <defs>
    <linearGradient id="bg" x1="80" y1="36" x2="1285" y2="520" gradientUnits="userSpaceOnUse">
      <stop stop-color="#09111F"/>
      <stop offset="0.55" stop-color="#0B1730"/>
      <stop offset="1" stop-color="#102544"/>
    </linearGradient>
    <linearGradient id="accentA" x1="0" y1="0" x2="1" y2="1">
      <stop stop-color="#5EEAD4"/>
      <stop offset="1" stop-color="#22C55E"/>
    </linearGradient>
    <linearGradient id="accentB" x1="0" y1="0" x2="1" y2="1">
      <stop stop-color="#7DD3FC"/>
      <stop offset="1" stop-color="#38BDF8"/>
    </linearGradient>
    <linearGradient id="accentC" x1="0" y1="0" x2="1" y2="1">
      <stop stop-color="#FDBA74"/>
      <stop offset="1" stop-color="#FB7185"/>
    </linearGradient>
    <filter id="blurGlow" x="-40%" y="-40%" width="180%" height="180%">
      <feGaussianBlur stdDeviation="36"/>
    </filter>
  </defs>

  <rect width="1400" height="540" rx="28" fill="url(#bg)"/>
  <rect x="28" y="28" width="1344" height="484" rx="22" stroke="rgba(255,255,255,0.12)" stroke-width="1.4"/>

  <g opacity="0.42" filter="url(#blurGlow)">
    <circle cx="1120" cy="120" r="90" fill="#22C55E"/>
    <circle cx="1255" cy="330" r="104" fill="#38BDF8"/>
    <circle cx="1015" cy="390" r="88" fill="#FB7185"/>
  </g>

  <g opacity="0.16">
    <path d="M0 110H1400" stroke="white"/>
    <path d="M0 210H1400" stroke="white"/>
    <path d="M0 310H1400" stroke="white"/>
    <path d="M0 410H1400" stroke="white"/>
    <path d="M190 0V540" stroke="white"/>
    <path d="M380 0V540" stroke="white"/>
    <path d="M570 0V540" stroke="white"/>
    <path d="M760 0V540" stroke="white"/>
    <path d="M950 0V540" stroke="white"/>
    <path d="M1140 0V540" stroke="white"/>
  </g>

  <g>
    <text x="76" y="110" fill="white" font-family="Arial, Helvetica, sans-serif" font-size="20" letter-spacing="4">CROSS-VIEW SPATIAL REASONING</text>
    <text x="76" y="198" fill="white" font-family="Arial, Helvetica, sans-serif" font-size="68" font-weight="700">CrossView Suite</text>
    <text x="76" y="252" fill="#D1D5DB" font-family="Arial, Helvetica, sans-serif" font-size="28">Dataset, benchmark, and model design for object-centric multi-view intelligence.</text>
    <text x="76" y="300" fill="#94A3B8" font-family="Arial, Helvetica, sans-serif" font-size="20">Built around explicit alignment, mask-grounded representation, and Qwen3-VL reasoning.</text>
  </g>

  <g>
    <rect x="76" y="362" width="148" height="44" rx="22" fill="rgba(255,255,255,0.08)" stroke="rgba(255,255,255,0.16)"/>
    <text x="104" y="390" fill="white" font-family="Arial, Helvetica, sans-serif" font-size="18" font-weight="700">1.6M samples</text>

    <rect x="238" y="362" width="166" height="44" rx="22" fill="rgba(255,255,255,0.08)" stroke="rgba(255,255,255,0.16)"/>
    <text x="267" y="390" fill="white" font-family="Arial, Helvetica, sans-serif" font-size="18" font-weight="700">17K questions</text>

    <rect x="418" y="362" width="144" height="44" rx="22" fill="rgba(255,255,255,0.08)" stroke="rgba(255,255,255,0.16)"/>
    <text x="449" y="390" fill="white" font-family="Arial, Helvetica, sans-serif" font-size="18" font-weight="700">17 task types</text>
  </g>

  <g>
    <rect x="780" y="82" width="520" height="376" rx="28" fill="rgba(255,255,255,0.05)" stroke="rgba(255,255,255,0.15)"/>

    <g transform="translate(826 136)">
      <rect width="128" height="166" rx="22" fill="rgba(255,255,255,0.07)" stroke="rgba(255,255,255,0.12)"/>
      <rect x="20" y="22" width="88" height="10" rx="5" fill="url(#accentA)"/>
      <text x="20" y="58" fill="white" font-family="Arial, Helvetica, sans-serif" font-size="24" font-weight="700">CrossViewSet</text>
      <text x="20" y="92" fill="#CBD5E1" font-family="Arial, Helvetica, sans-serif" font-size="17">Mask-grounded</text>
      <text x="20" y="118" fill="#CBD5E1" font-family="Arial, Helvetica, sans-serif" font-size="17">instruction data</text>
      <circle cx="32" cy="138" r="7" fill="#5EEAD4"/>
      <circle cx="54" cy="138" r="7" fill="#22C55E"/>
      <circle cx="76" cy="138" r="7" fill="#86EFAC"/>
    </g>

    <g transform="translate(978 106)">
      <rect width="128" height="196" rx="22" fill="rgba(255,255,255,0.07)" stroke="rgba(255,255,255,0.12)"/>
      <rect x="20" y="22" width="88" height="10" rx="5" fill="url(#accentB)"/>
      <text x="20" y="58" fill="white" font-family="Arial, Helvetica, sans-serif" font-size="24" font-weight="700">CrossViewBench</text>
      <text x="20" y="92" fill="#CBD5E1" font-family="Arial, Helvetica, sans-serif" font-size="17">Scene-disjoint</text>
      <text x="20" y="118" fill="#CBD5E1" font-family="Arial, Helvetica, sans-serif" font-size="17">benchmark</text>
      <path d="M20 154H108" stroke="#7DD3FC" stroke-width="6" stroke-linecap="round"/>
      <path d="M20 174H96" stroke="#38BDF8" stroke-width="6" stroke-linecap="round"/>
      <path d="M20 194H84" stroke="#0EA5E9" stroke-width="6" stroke-linecap="round"/>
    </g>

    <g transform="translate(1130 136)">
      <rect width="128" height="166" rx="22" fill="rgba(255,255,255,0.07)" stroke="rgba(255,255,255,0.12)"/>
      <rect x="20" y="22" width="88" height="10" rx="5" fill="url(#accentC)"/>
      <text x="20" y="58" fill="white" font-family="Arial, Helvetica, sans-serif" font-size="24" font-weight="700">CrossViewer</text>
      <text x="20" y="92" fill="#CBD5E1" font-family="Arial, Helvetica, sans-serif" font-size="17">Perception</text>
      <text x="20" y="118" fill="#CBD5E1" font-family="Arial, Helvetica, sans-serif" font-size="17">Alignment</text>
      <text x="20" y="144" fill="#CBD5E1" font-family="Arial, Helvetica, sans-serif" font-size="17">Reasoning</text>
    </g>

    <path d="M954 220H975" stroke="rgba(255,255,255,0.35)" stroke-width="2.5"/>
    <path d="M1106 220H1127" stroke="rgba(255,255,255,0.35)" stroke-width="2.5"/>
    <circle cx="964" cy="220" r="5" fill="#38BDF8"/>
    <circle cx="1116" cy="220" r="5" fill="#FB7185"/>
  </g>
</svg>
